<svg width="24" height="28" viewBox="0 0 24 28" fill="none" xmlns="http://www.w3.org/2000/svg">
<path d="M16.0675 19.5991H7.30345C6.91606 19.5991 6.54453 19.7466 6.2706 20.0092C5.99667 20.2717 5.84277 20.6278 5.84277 20.9991C5.84277 21.3704 5.99667 21.7265 6.2706 21.989C6.54453 22.2516 6.91606 22.3991 7.30345 22.3991H16.0675C16.4549 22.3991 16.8264 22.2516 17.1004 21.989C17.3743 21.7265 17.5282 21.3704 17.5282 20.9991C17.5282 20.6278 17.3743 20.2717 17.1004 20.0092C16.8264 19.7466 16.4549 19.5991 16.0675 19.5991Z" fill="#7077A0"/>
<path d="M7.30345 16.7999H11.6855C12.0729 16.7999 12.4444 16.6525 12.7183 16.3899C12.9923 16.1274 13.1462 15.7713 13.1462 15.4C13.1462 15.0287 12.9923 14.6726 12.7183 14.41C12.4444 14.1475 12.0729 14 11.6855 14H7.30345C6.91606 14 6.54453 14.1475 6.2706 14.41C5.99667 14.6726 5.84277 15.0287 5.84277 15.4C5.84277 15.7713 5.99667 16.1274 6.2706 16.3899C6.54453 16.6525 6.91606 16.7999 7.30345 16.7999Z" fill="#7077A0"/>
<path d="M22.9911 8.86209L15.045 0.462244C14.9084 0.317217 14.7417 0.20119 14.5555 0.121623C14.3694 0.0420572 14.1679 0.000713715 13.9641 0.000251962H3.73934C3.25402 -0.00529627 2.77233 0.0808345 2.32175 0.253726C1.87117 0.426618 1.46054 0.682884 1.1133 1.00789C0.766066 1.3329 0.489026 1.72027 0.298005 2.14791C0.106983 2.57554 0.00572056 3.03505 0 3.50019V24.4998C0.00572056 24.965 0.106983 25.4245 0.298005 25.8521C0.489026 26.2797 0.766066 26.6671 1.1133 26.9921C1.46054 27.3171 1.87117 27.5734 2.32175 27.7463C2.77233 27.9192 3.25402 28.0053 3.73934 27.9997H19.6315C20.1168 28.0053 20.5985 27.9192 21.0491 27.7463C21.4997 27.5734 21.9103 27.3171 22.2575 26.9921C22.6048 26.6671 22.8818 26.2797 23.0728 25.8521C23.2639 25.4245 23.3651 24.965 23.3708 24.4998V9.80008C23.3699 9.45311 23.2346 9.11885 22.9911 8.86209ZM14.6068 4.20018L18.609 8.4001H15.6877C15.5347 8.39125 15.3851 8.35329 15.2476 8.28843C15.1101 8.22357 14.9875 8.13311 14.8869 8.02234C14.7863 7.91156 14.7097 7.78269 14.6616 7.64324C14.6135 7.50379 14.5949 7.35655 14.6068 7.21012V4.20018ZM19.6315 25.1998H3.73934C3.63763 25.2055 3.53577 25.1919 3.43957 25.1597C3.34337 25.1276 3.25474 25.0776 3.17874 25.0125C3.10275 24.9475 3.0409 24.8687 2.99673 24.7808C2.95257 24.6928 2.92695 24.5973 2.92136 24.4998V3.50019C2.92695 3.4027 2.95257 3.30722 2.99673 3.21924C3.0409 3.13125 3.10275 3.05249 3.17874 2.98746C3.25474 2.92243 3.34337 2.87241 3.43957 2.84028C3.53577 2.80815 3.63763 2.79453 3.73934 2.8002H11.6854V7.21012C11.6618 8.24138 12.0648 9.2397 12.8064 9.98721C13.5481 10.7347 14.5681 11.1707 15.6439 11.2001H20.4495V24.4998C20.4439 24.5973 20.4183 24.6928 20.3741 24.7808C20.3299 24.8687 20.2681 24.9475 20.1921 25.0125C20.1161 25.0776 20.0275 25.1276 19.9313 25.1597C19.8351 25.1919 19.7332 25.2055 19.6315 25.1998Z" fill="#7077A0"/>
</svg>
